<svg width="24" height="24" viewBox="0 0 24 24" fill="none" xmlns="http://www.w3.org/2000/svg">
<path d="M12 12.3486V12.111C12 11.3345 12.505 10.9134 13.011 10.5903C13.505 10.2738 14 9.86128 14 9.10092C14 8.05066 13.105 7.2 12 7.2C10.895 7.2 10 8.05066 10 9.10092M12 15.2H12.012M4 10.75C4 4.75 5.5 4.25 12 4.25C18.5 4.25 20 4.75 20 10.75C20 15.8671 18.909 16.9838 14.5557 17.2016C13.2802 18.3846 10.8901 20.25 8.5 20.25L9.2645 17.192C5.0609 16.9519 4 15.7959 4 10.75Z" stroke="white" stroke-width="1.5" stroke-miterlimit="10" stroke-linecap="round" stroke-linejoin="round"/>
</svg>
