<svg viewBox="0 0 18 18" xmlns="http://www.w3.org/2000/svg"><path d="M9.527.003h.238l.62.002c.74.003 1.164.009 1.543.02l.187.007.595.025c.957.044 1.611.196 2.183.418.6.226 1.145.58 1.594 1.038.458.45.812.993 1.038 1.594.222.572.374 1.226.418 2.183.01.23.02.423.026.617l.007.195c.013.43.018.926.02 1.878l.001.473V10.02c-.004 1.538-.017 1.883-.054 2.69-.044.957-.196 1.611-.418 2.183a4.6 4.6 0 01-2.631 2.632c-.573.222-1.227.374-2.184.418-.806.037-1.152.05-2.69.053l-.737.001H7.98c-1.538-.004-1.883-.017-2.69-.054-.957-.044-1.611-.196-2.183-.418a4.41 4.41 0 01-1.594-1.038 4.41 4.41 0 01-1.038-1.594c-.222-.572-.374-1.226-.418-2.184l-.025-.594-.007-.187c-.011-.38-.017-.802-.02-1.543l-.002-.62V8.473v-.238l.002-.62A43.51 43.51 0 01.057 5.29c.044-.957.196-1.611.418-2.183a4.41 4.41 0 011.038-1.594A4.41 4.41 0 013.107.475C3.679.253 4.333.101 5.29.057A43.69 43.69 0 017.616.005l.62-.002h.237zm.01 1.621H8.463c-1.915.002-2.226.013-3.099.052-.877.04-1.353.187-1.67.31-.391.144-.745.374-1.035.673-.299.29-.529.644-.673 1.035-.123.317-.27.793-.31 1.67-.04.873-.05 1.184-.052 3.099v1.074c.002 1.915.012 2.226.052 3.099.04.877.187 1.353.31 1.67.144.391.374.745.673 1.035.29.299.644.529 1.035.673.317.123.793.27 1.67.31.797.036 1.125.048 2.634.051l.465.001H10.002c1.509-.004 1.837-.016 2.634-.052.877-.04 1.353-.187 1.67-.31a2.98 2.98 0 001.708-1.708c.123-.317.27-.793.31-1.67.036-.797.048-1.125.051-2.634l.001-.724V9 7.998c-.004-1.508-.016-1.837-.052-2.634-.04-.877-.187-1.353-.31-1.67a2.788 2.788 0 00-.673-1.035 2.788 2.788 0 00-1.035-.673c-.317-.123-.793-.27-1.67-.31-.873-.04-1.184-.05-3.099-.052zM9 4.38a4.62 4.62 0 110 9.24 4.62 4.62 0 010-9.24zM9 6a2.999 2.999 0 100 5.998 2.999 2.999 0 000-5.998zm4.803-2.883a1.08 1.08 0 110 2.159 1.08 1.08 0 010-2.16z"></path></svg>