<svg viewBox="0 0 18 18" xmlns="http://www.w3.org/2000/svg"><path d="M16.67 18c.734 0 1.33-.577 1.33-1.29V1.29C18 .576 17.404 0 16.67 0H1.33C.596 0 0 .577 0 1.29v15.42C0 17.424.596 18 1.33 18zM4.097 5.83h-.018c-.912 0-1.502-.624-1.502-1.404 0-.798.608-1.404 1.538-1.404s1.502.606 1.52 1.404c0 .78-.59 1.404-1.538 1.404zm5.582 9.238H6.961v-.18c.003-.552.01-2.289.014-4.004v-.54l.001-.267v-1.49A62.106 62.106 0 006.96 6.94H9.68l-.001 1.152.041-.063c.37-.549 1.02-1.28 2.41-1.28 1.788 0 3.13 1.162 3.13 3.658v4.66H12.54V10.72c0-1.093-.393-1.838-1.377-1.838-.751 0-1.199.502-1.395.988-.072.173-.09.416-.09.659v4.539zm-4.223 0H2.738V6.94h2.718v8.128z"></path></svg>