<svg viewBox="0 0 18 18" xmlns="http://www.w3.org/2000/svg"><path d="M18 9c0 4.973-4.027 9-9 9s-9-4.027-9-9 4.027-9 9-9 9 4.027 9 9zM7.353 13.748c3.992 0 6.174-3.308 6.174-6.174 0-.095 0-.19-.004-.28a4.446 4.446 0 001.084-1.124 4.404 4.404 0 01-1.246.341c.45-.27.791-.692.954-1.201a4.394 4.394 0 01-1.377.527 2.17 2.17 0 00-3.694 1.98 6.156 6.156 0 01-4.474-2.269c-.184.32-.292.694-.292 1.09 0 .751.382 1.417.967 1.804a2.132 2.132 0 01-.981-.27v.027c0 1.053.747 1.926 1.741 2.129a2.163 2.163 0 01-.98.036A2.167 2.167 0 007.25 11.87a4.362 4.362 0 01-3.213.896c.949.62 2.092.98 3.316.98"></path></svg>