<svg width="26" height="27" xmlns="http://www.w3.org/2000/svg"><path d="M15.157 1.53a3.004 3.004 0 002.934.954 3.006 3.006 0 013.663 2.664 3.008 3.008 0 001.813 2.498 3.01 3.01 0 011.399 4.31 3.01 3.01 0 000 3.088 3.01 3.01 0 01-1.4 4.31 3.008 3.008 0 00-1.812 2.498 3.006 3.006 0 01-3.663 2.664 3.003 3.003 0 00-2.934.954 3.003 3.003 0 01-4.528 0 3.003 3.003 0 00-2.934-.954 3.006 3.006 0 01-3.663-2.664 3.008 3.008 0 00-1.813-2.498 3.01 3.01 0 01-1.4-4.31 3.01 3.01 0 000-3.088 3.01 3.01 0 011.4-4.31 3.008 3.008 0 001.813-2.498 3.006 3.006 0 013.663-2.664 3.004 3.004 0 002.934-.954 3.003 3.003 0 014.528 0" fill="#FFF"></path><path fill="#000" d="M6.893 15l-1.47 1.023.519-1.714-1.427-1.082 1.79-.036.588-1.691.588 1.691 1.79.036-1.427 1.082.518 1.714zM18.893 15l-1.47 1.023.519-1.714-1.427-1.082 1.79-.036.588-1.691.588 1.691 1.79.036-1.427 1.082.518 1.714zM12.893 13.9l-2.057 1.432.725-2.4-1.997-1.514 2.506-.05L12.893 9l.823 2.367 2.506.051-1.998 1.515.726 2.399z"></path></svg>