<svg width="18" height="22" xmlns="http://www.w3.org/2000/svg"><path fill="#FFF" d="M14.827 11.717c.01-.814.231-1.613.64-2.322a4.905 4.905 0 011.703-1.73 4.997 4.997 0 00-1.73-1.516 5.093 5.093 0 00-2.238-.592c-1.671-.173-3.288.98-4.139.98-.868 0-2.177-.965-3.586-.935a5.333 5.333 0 00-2.583.759A5.206 5.206 0 001.03 8.268C-.895 11.535.54 16.339 2.38 18.983c.921 1.297 1.999 2.74 3.408 2.69 1.38-.056 1.896-.866 3.558-.866 1.651 0 2.136.865 3.573.833 1.48-.023 2.413-1.3 3.3-2.605a10.752 10.752 0 001.51-3.021 4.73 4.73 0 01-2.11-1.719 4.618 4.618 0 01-.793-2.578M12.112 3.818A4.695 4.695 0 0013.22.41a4.943 4.943 0 00-3.19 1.622 4.457 4.457 0 00-1.137 3.278 4.093 4.093 0 003.218-1.493"></path></svg>