<svg viewBox="0 0 18 15" xmlns="http://www.w3.org/2000/svg"><path d="M9.175 0h.095l.241.002c1.42.01 5.376.068 6.522.378.774.21 1.384.827 1.59 1.61.338 1.274.373 3.788.377 4.295v.18c-.004.506-.039 3.02-.376 4.294a2.268 2.268 0 01-1.591 1.61c-1.22.33-5.625.374-6.763.38h-.54c-.587-.003-2.04-.016-3.478-.073l-.506-.022c-1.171-.056-2.262-.144-2.78-.285a2.268 2.268 0 01-1.59-1.61C.038 9.485.003 6.971 0 6.465v-.18c.003-.507.038-3.02.376-4.295.207-.783.816-1.4 1.59-1.61C3.113.07 7.07.012 8.489.002L8.73 0h.094zM7.2 3.642v5.465l4.676-2.732L7.2 3.642z"></path></svg>